# xmcd CD database file
#
# Track frame offsets:
#	150
#	20196
#	58157
#	93485
#	112876
#	136444
#	154794
#	170094
#	191673
#	211964
#	232438
#	252401
#	275714
#	291286
#
# Disc length: 4217 seconds
#
# Revision: 0
# Processed by: cddbd v1.5.1PL2 Copyright (c) Steve Scherf et al.
# Submitted via: Feurio! 1.68 - http://www.feurio.com
#
DISCID=e210770e
DTITLE=George Thorogood - Anthology (edit) CD 2
DYEAR=1900
DGENRE=Bluesrock
TTITLE0=Madison Blues
TTITLE1=One Bourbon, One Scotch, One Beer
TTITLE2=Delaware Slide
TTITLE3=Move It On Over
TTITLE4=The Sky Is Crying
TTITLE5=I'm Wanted
TTITLE6=Nobody But Me
TTITLE7=Bad To The Bone
TTITLE8=I Drink Alone
TTITLE9=Gear Jammer
TTITLE10=Long Gone
TTITLE11=Reelin' And Rockin'
TTITLE12=Bottom To The Sea
TTITLE13=Night Time
EXTD=
EXTT0=
EXTT1=
EXTT2=
EXTT3=
EXTT4=
EXTT5=
EXTT6=
EXTT7=
EXTT8=
EXTT9=
EXTT10=
EXTT11=
EXTT12=
EXTT13=
PLAYORDER=
